<svg width="27" height="26" viewBox="0 0 27 26" fill="none" xmlns="http://www.w3.org/2000/svg">
    <path
        d="M13.999 3.74713e-08C11.7413 -0.000171361 9.52242 0.587659 7.5609 1.70562C5.59937 2.82357 3.96282 4.43311 2.81237 6.37575C1.66192 8.3184 1.03724 10.5272 0.999832 12.7846C0.962424 15.042 1.51358 17.2703 2.59903 19.25L1.53653 23C1.43742 23.3417 1.43184 23.7038 1.5204 24.0484C1.60896 24.393 1.78839 24.7075 2.03998 24.9591C2.29157 25.2106 2.60607 25.3901 2.95067 25.4786C3.29527 25.5672 3.65732 25.5616 3.99903 25.4625L7.74903 24.4C9.48689 25.3525 11.4195 25.8951 13.3992 25.9862C15.3788 26.0774 17.3532 25.7148 19.1712 24.926C20.9893 24.1373 22.6029 22.9433 23.8888 21.4354C25.1748 19.9275 26.0989 18.1456 26.5907 16.2258C27.0824 14.306 27.1287 12.2992 26.7261 10.3588C26.3235 8.41832 25.4825 6.59563 24.2675 5.02999C23.0525 3.46435 21.4957 2.19721 19.716 1.32542C17.9363 0.453631 15.9808 0.00027451 13.999 3.74713e-08ZM17.0115 21H16.999C14.0805 20.9967 11.2826 19.835 9.2201 17.7701C7.15756 15.7052 5.99903 12.906 5.99903 9.9875C6.00234 8.79619 6.47791 7.65481 7.32147 6.8136C8.16502 5.97238 9.30772 5.5 10.499 5.5C10.8265 5.50072 11.148 5.58776 11.4311 5.75235C11.7142 5.91694 11.9489 6.15327 12.1115 6.4375L13.574 9C13.7507 9.30689 13.8415 9.65562 13.8371 10.0097C13.8327 10.3637 13.7332 10.7101 13.549 11.0125L12.6615 12.5C13.1078 13.2588 13.7402 13.8913 14.499 14.3375L15.9865 13.45C16.2889 13.2658 16.6353 13.1663 16.9894 13.1619C17.3434 13.1575 17.6921 13.2484 17.999 13.425L20.5615 14.8875C20.8458 15.0501 21.0821 15.2848 21.2467 15.5679C21.4113 15.851 21.4983 16.1725 21.499 16.5C21.499 17.6913 21.0266 18.834 20.1854 19.6776C19.3442 20.5211 18.2028 20.9967 17.0115 21Z"
        fill="white" />
    <path
        d="M15.0625 16.3375C14.9234 16.4188 14.7669 16.4658 14.6061 16.4745C14.4452 16.4832 14.2845 16.4534 14.1375 16.3875C12.5657 15.6908 11.3092 14.4343 10.6125 12.8625C10.5466 12.7155 10.5168 12.5548 10.5255 12.3939C10.5342 12.2331 10.5812 12.0766 10.6625 11.9375L11.8375 9.9875L10.425 7.5C9.77618 7.51631 9.15941 7.78556 8.70635 8.25031C8.25328 8.71505 7.9998 9.33846 8.00001 9.9875C7.99837 11.1704 8.22994 12.3421 8.6815 13.4355C9.13306 14.5289 9.79573 15.5225 10.6316 16.3595C11.4675 17.1966 12.4602 17.8606 13.553 18.3137C14.6457 18.7668 15.8171 19 17 19H17.0125C17.6615 19.0002 18.285 18.7467 18.7497 18.2937C19.2144 17.8406 19.4837 17.2238 19.5 16.575L17.0125 15.1625L15.0625 16.3375Z"
        fill="white" />
</svg>